<svg xmlns="http://www.w3.org/2000/svg" viewBox="0 0 452.986 452.986" enable-background="new 0 0 452.986 452.986"><g fill="#010002"><path d="M404.344 0H48.642C21.894 0 0 21.873 0 48.664v355.68c0 26.727 21.894 48.643 48.642 48.643h355.702c26.726 0 48.642-21.916 48.642-48.642V48.665C452.986 21.872 431.07 0 404.344 0zM148.43 33.63H304.47v40.336H148.43V33.63zM410.9 406.37H42.042v-293.88H410.9v293.88zM79.273 246.23h48.642v48.664H79.273zM79.273 323.26h48.642v48.642H79.273zM160.853 169.223h48.62v48.642h-48.62zM160.853 246.23h48.62v48.664h-48.62zM160.853 323.26h48.62v48.642h-48.62zM242.37 169.223h48.663v48.642H242.37zM242.37 246.23h48.663v48.664H242.37zM242.37 323.26h48.663v48.642H242.37zM323.907 169.223h48.664v48.642h-48.663zM323.907 246.23h48.664v48.664h-48.663z"/></g></svg>